<svg xmlns="http://www.w3.org/2000/svg" fill-rule="evenodd" stroke-linejoin="round" stroke-miterlimit="2" clip-rule="evenodd" viewBox="0 0 64 64" id="copy" fill='#ffffff'>
  <path d="M1702,20C1700.41,20 1698.88,20.632 1697.76,21.757C1696.63,22.883 1696,24.409 1696,26C1696,34.707 1696,55.293 1696,64C1696,65.591 1696.63,67.117 1697.76,68.243C1698.88,69.368 1700.41,70 1702,70C1708.54,70 1721.46,70 1728,70C1729.59,70 1731.12,69.368 1732.24,68.243C1733.37,67.117 1734,65.591 1734,64C1734,62.896 1733.1,62 1732,62C1730.9,62 1730,62.896 1730,64C1730,64.53 1729.79,65.039 1729.41,65.414C1729.04,65.789 1728.53,66 1728,66L1702,66C1701.47,66 1700.96,65.789 1700.59,65.414C1700.21,65.039 1700,64.53 1700,64L1700,26C1700,25.47 1700.21,24.961 1700.59,24.586C1700.96,24.211 1701.47,24 1702,24C1703.1,24 1704,23.104 1704,22C1704,20.896 1703.1,20 1702,20ZM1744,16C1744,14.409 1743.37,12.883 1742.24,11.757C1741.12,10.632 1739.59,10 1738,10C1731.46,10 1718.54,10 1712,10C1710.41,10 1708.88,10.632 1707.76,11.757C1706.63,12.883 1706,14.409 1706,16L1706,54C1706,55.591 1706.63,57.117 1707.76,58.243C1708.88,59.368 1710.41,60 1712,60C1718.54,60 1731.46,60 1738,60C1739.59,60 1741.12,59.368 1742.24,58.243C1743.37,57.117 1744,55.591 1744,54L1744,16ZM1740,16L1740,54C1740,54.53 1739.79,55.039 1739.41,55.414C1739.04,55.789 1738.53,56 1738,56L1712,56C1711.47,56 1710.96,55.789 1710.59,55.414C1710.21,55.039 1710,54.53 1710,54L1710,16C1710,15.47 1710.21,14.961 1710.59,14.586C1710.96,14.211 1711.47,14 1712,14L1738,14C1738.53,14 1739.04,14.211 1739.41,14.586C1739.79,14.961 1740,15.47 1740,16Z" transform="translate(-1688 -8)"></path>
</svg>
